<svg width="32" height="32" viewBox="0 0 32 32" fill="none" xmlns="http://www.w3.org/2000/svg">
<rect width="32" height="32" rx="6" fill="url(#paint0_linear_0_1)"/>
<path d="M8 10C8 9.44772 8.44772 9 9 9H21C21.5523 9 22 9.44772 22 10V11C22 11.5523 21.5523 12 21 12H11V16H19C19.5523 16 20 16.4477 20 17V18C20 18.5523 19.5523 19 19 19H11V23C11 23.5523 10.5523 24 10 24H9C8.44772 24 8 23.5523 8 23V10Z" fill="white"/>
<defs>
<linearGradient id="paint0_linear_0_1" x1="0" y1="0" x2="32" y2="32" gradientUnits="userSpaceOnUse">
<stop stop-color="#3B82F6"/>
<stop offset="1" stop-color="#1E40AF"/>
</linearGradient>
</defs>
</svg>